<svg width="200" height="200" viewBox="0 0 200 200" fill="none" xmlns="http://www.w3.org/2000/svg">
<rect width="200" height="200" fill="#F3F4F6"/>
<path d="M70 90L74.5 95L85 82L95 95L105.5 82L116 95L130 85V120H70V90Z" fill="#9CA3AF"/>
<circle cx="85" cy="75" r="8" fill="#9CA3AF"/>
<path d="M100 130C102.21 130 104 128.21 104 126V74C104 71.79 102.21 70 100 70C97.79 70 96 71.79 96 74V126C96 128.21 97.79 130 100 130Z" fill="#9CA3AF"/>
<path d="M126 104C128.21 104 130 102.21 130 100C130 97.79 128.21 96 126 96H74C71.79 96 70 97.79 70 100C70 102.21 71.79 104 74 104H126Z" fill="#9CA3AF"/>
</svg>
